<svg width="1897" height="2003" xmlns="http://www.w3.org/2000/svg" xmlns:xlink="http://www.w3.org/1999/xlink" overflow="hidden"><defs><clipPath id="clip0"><rect x="1164" y="233" width="1897" height="2003"/></clipPath></defs><g clip-path="url(#clip0)" transform="translate(-1164 -233)"><rect x="2131" y="879" width="930" height="1352" fill="#FBE5D6" fill-opacity="1"/><rect x="1166" y="883" width="931" height="1352" fill="#DAE3F3" fill-opacity="1"/><path d="M2209.5 508.5C2209.5 479.229 2226.96 455.5 2248.5 455.5 2270.04 455.5 2287.5 479.229 2287.5 508.5 2287.5 537.771 2270.04 561.5 2248.5 561.5 2226.96 561.5 2209.5 537.771 2209.5 508.5Z" stroke="#000000" stroke-width="4.58333" stroke-linecap="butt" stroke-linejoin="miter" stroke-miterlimit="8" stroke-opacity="1" fill="#FFC000" fill-rule="evenodd" fill-opacity="1"/><path d="M2239.5 508.5C2239.5 479.229 2256.96 455.5 2278.5 455.5 2300.04 455.5 2317.5 479.229 2317.5 508.5 2317.5 537.771 2300.04 561.5 2278.5 561.5 2256.96 561.5 2239.5 537.771 2239.5 508.5Z" stroke="#000000" stroke-width="4.58333" stroke-linecap="butt" stroke-linejoin="miter" stroke-miterlimit="8" stroke-opacity="1" fill="#FFC000" fill-rule="evenodd" fill-opacity="1"/><path d="M2269.5 508.5C2269.5 479.229 2286.96 455.5 2308.5 455.5 2330.04 455.5 2347.5 479.229 2347.5 508.5 2347.5 537.771 2330.04 561.5 2308.5 561.5 2286.96 561.5 2269.5 537.771 2269.5 508.5Z" stroke="#000000" stroke-width="4.58333" stroke-linecap="butt" stroke-linejoin="miter" stroke-miterlimit="8" stroke-opacity="1" fill="#FFC000" fill-rule="evenodd" fill-opacity="1"/><path d="M1504.5 510.5C1504.5 481.229 1521.96 457.5 1543.5 457.5 1565.04 457.5 1582.5 481.229 1582.5 510.5 1582.5 539.771 1565.04 563.5 1543.5 563.5 1521.96 563.5 1504.5 539.771 1504.5 510.5Z" stroke="#000000" stroke-width="4.58333" stroke-linecap="butt" stroke-linejoin="miter" stroke-miterlimit="8" stroke-opacity="1" fill="#FFC000" fill-rule="evenodd" fill-opacity="1"/><path d="M1534.5 510C1534.5 480.453 1551.96 456.5 1573.5 456.5 1595.04 456.5 1612.5 480.453 1612.5 510 1612.5 539.547 1595.04 563.5 1573.5 563.5 1551.96 563.5 1534.5 539.547 1534.5 510Z" stroke="#000000" stroke-width="4.58333" stroke-linecap="butt" stroke-linejoin="miter" stroke-miterlimit="8" stroke-opacity="1" fill="#FFC000" fill-rule="evenodd" fill-opacity="1"/><path d="M1564.5 510C1564.5 480.453 1581.96 456.5 1603.5 456.5 1625.04 456.5 1642.5 480.453 1642.5 510 1642.5 539.547 1625.04 563.5 1603.5 563.5 1581.96 563.5 1564.5 539.547 1564.5 510Z" stroke="#000000" stroke-width="4.58333" stroke-linecap="butt" stroke-linejoin="miter" stroke-miterlimit="8" stroke-opacity="1" fill="#FFC000" fill-rule="evenodd" fill-opacity="1"/><text fill="#000000" fill-opacity="1" font-family="Arial,Arial_MSFontService,sans-serif" font-style="normal" font-variant="normal" font-weight="400" font-stretch="normal" font-size="60" text-anchor="start" direction="ltr" writing-mode="lr-tb" unicode-bidi="normal" text-decoration="none" transform="matrix(1 0 0 1 1336.25 352)">50, 90, 98, 70, 50, 90, 91, 90, 68, 74, 74, 70, 70, 70, 70 (km)</text><path d="M2395.5 460.5 2475.5 508.5 2395.5 556.5Z" stroke="#000000" stroke-width="4.58333" stroke-linecap="butt" stroke-linejoin="miter" stroke-miterlimit="8" stroke-opacity="1" fill="#002060" fill-rule="evenodd" fill-opacity="1"/><rect x="1278.5" y="240.5" width="1649" height="528" stroke="#000000" stroke-width="4.58333" stroke-linecap="butt" stroke-linejoin="miter" stroke-miterlimit="8" stroke-dasharray="36.6667 13.75 4.58333 13.75 4.58333 13.75" stroke-opacity="1" fill="none"/><path d="M1643.01 508.854 1687.52 509.263 1687.5 511.554 1642.99 511.146ZM1660.74 493.131 1689.78 510.429 1660.43 527.192C1659.88 527.506 1659.18 527.315 1658.87 526.765 1658.55 526.216 1658.74 525.516 1659.29 525.202L1686.94 509.413 1686.92 511.393 1659.57 495.1C1659.03 494.776 1658.85 494.072 1659.17 493.529 1659.5 492.985 1660.2 492.807 1660.74 493.131Z" fill="#000000" fill-rule="nonzero" fill-opacity="1"/><path d="M2120 509.854 2200.07 509.855 2200.07 512.146 2120 512.146ZM2173.15 493.969 2202.35 511.001 2173.15 528.032C2172.61 528.351 2171.9 528.166 2171.58 527.619 2171.27 527.073 2171.45 526.371 2172 526.052L2199.5 510.011 2199.5 511.99 2172 495.948C2171.45 495.63 2171.27 494.928 2171.58 494.381 2171.9 493.835 2172.61 493.65 2173.15 493.969Z" fill="#000000" fill-rule="nonzero" fill-opacity="1"/><text fill="#000000" fill-opacity="1" font-family="Arial,Arial_MSFontService,sans-serif" font-style="normal" font-variant="normal" font-weight="400" font-stretch="normal" font-size="110" text-anchor="start" direction="ltr" writing-mode="lr-tb" unicode-bidi="normal" text-decoration="none" transform="matrix(1 0 0 1 2040.41 519)">…<tspan fill="#000000" fill-opacity="1" font-family="Arial,Arial_MSFontService,sans-serif" font-style="normal" font-variant="normal" font-weight="400" font-stretch="normal" font-size="83" text-anchor="start" direction="ltr" writing-mode="lr-tb" unicode-bidi="normal" text-decoration="none" x="192.592" y="224">15 spans, 1125km</tspan></text><path d="M1690.5 462.5 1769.5 510.5 1690.5 558.5Z" stroke="#000000" stroke-width="4.58333" stroke-linecap="butt" stroke-linejoin="miter" stroke-miterlimit="8" stroke-opacity="1" fill="#002060" fill-rule="evenodd" fill-opacity="1"/><path d="M1887 509.854 1943.41 509.855 1943.41 512.146 1887 512.146ZM1916.49 493.969 1945.68 511.001 1916.49 528.032C1915.94 528.351 1915.24 528.166 1914.92 527.619 1914.6 527.073 1914.79 526.371 1915.33 526.052L1942.83 510.011 1942.83 511.99 1915.33 495.948C1914.79 495.63 1914.6 494.928 1914.92 494.381 1915.24 493.835 1915.94 493.65 1916.49 493.969Z" fill="#000000" fill-rule="nonzero" fill-opacity="1"/><path d="M1996 509.854 2030.17 509.855 2030.17 512.146 1996 512.146ZM2003.25 493.969 2032.44 511.001 2003.25 528.032C2002.7 528.351 2002 528.166 2001.68 527.619 2001.36 527.073 2001.54 526.371 2002.09 526.052L2029.59 510.011 2029.59 511.99 2002.09 495.948C2001.55 495.629 2001.36 494.928 2001.68 494.381 2002 493.835 2002.7 493.65 2003.25 493.969Z" fill="#000000" fill-rule="nonzero" fill-opacity="1"/><path d="M0.000821995-1.14583 42.5055-1.11534 42.5039 1.17633-0.000821995 1.14583ZM15.5942-17.0202 44.7787 0.0321232 15.5698 17.0426C15.0229 17.3611 14.3215 17.1759 14.003 16.6291 13.6845 16.0822 13.8696 15.3807 14.4165 15.0623L41.928-0.959669 41.9266 1.01982 14.4381-15.0416C13.8917-15.3608 13.7076-16.0626 14.0268-16.609 14.3461-17.1554 15.0478-17.3395 15.5942-17.0202Z" fill="#000000" fill-rule="nonzero" fill-opacity="1" transform="matrix(1 0 0 -1 2347 508.032)"/><path d="M0.00338419-1.14583 46.3671-1.00889 46.3603 1.28276-0.00338419 1.14583ZM19.4914-16.9739 48.6377 0.143651 19.3908 17.0888C18.8433 17.406 18.1422 17.2193 17.825 16.6717 17.5077 16.1242 17.6944 15.4231 18.242 15.1059L45.7892-0.854513 45.7834 1.12497 18.3309-14.9978C17.7852-15.3183 17.6027-16.0205 17.9231-16.5662 18.2436-17.1118 18.9458-17.2944 19.4914-16.9739Z" fill="#000000" fill-rule="nonzero" fill-opacity="1" transform="matrix(1 0 0 -1 2475 508.144)"/><path d="M2912.33 1650.5C2942.8 1650.5 2967.5 1675.2 2967.5 1705.67L2967.5 1926.33C2967.5 1956.8 2942.8 1981.5 2912.33 1981.5L2231.67 1981.5C2201.2 1981.5 2176.5 1956.8 2176.5 1926.33L2176.5 1705.67C2176.5 1675.2 2201.2 1650.5 2231.67 1650.5Z" stroke="#000000" stroke-width="4.58333" stroke-linecap="butt" stroke-linejoin="miter" stroke-miterlimit="8" stroke-opacity="1" fill="#FFFFFF" fill-rule="evenodd" fill-opacity="1"/><path d="M2929.83 1985.5C2950.64 1985.5 2967.5 2002.36 2967.5 2023.17L2967.5 2173.83C2967.5 2194.64 2950.64 2211.5 2929.83 2211.5L2217.17 2211.5C2196.36 2211.5 2179.5 2194.64 2179.5 2173.83L2179.5 2023.17C2179.5 2002.36 2196.36 1985.5 2217.17 1985.5Z" stroke="#000000" stroke-width="4.58333" stroke-linecap="butt" stroke-linejoin="miter" stroke-miterlimit="8" stroke-opacity="1" fill="#FFFFFF" fill-rule="evenodd" fill-opacity="1"/><text fill="#000000" fill-opacity="1" font-family="Calibri,Calibri_MSFontService,sans-serif" font-style="normal" font-variant="normal" font-weight="400" font-stretch="normal" font-size="83" text-anchor="start" direction="ltr" writing-mode="lr-tb" unicode-bidi="normal" text-decoration="none" transform="matrix(1 0 0 1 2453.8 2125)">RX DSP</text><rect x="2763.5" y="1527.5" width="152" height="102" stroke="#C00000" stroke-width="4.58333" stroke-linecap="butt" stroke-linejoin="miter" stroke-miterlimit="8" stroke-opacity="1" fill="#FFFFFF" fill-opacity="1"/><path d="M2893 1606 2837 1577 2893 1548Z" fill="#FF0000" fill-rule="evenodd" fill-opacity="1"/><path d="M2840 1548 2840 1606.77" stroke="#FF0000" stroke-width="2.29167" stroke-linecap="butt" stroke-linejoin="miter" stroke-miterlimit="8" stroke-opacity="1" fill="none" fill-rule="evenodd"/><path d="M2821 1606 2765 1577 2821 1548Z" fill="#FF0000" fill-rule="evenodd" fill-opacity="1"/><path d="M2768 1548 2768 1606.77" stroke="#FF0000" stroke-width="2.29167" stroke-linecap="butt" stroke-linejoin="miter" stroke-miterlimit="8" stroke-opacity="1" fill="none" fill-rule="evenodd"/><path d="M2914.49 1577 2890 1577" stroke="#FF0000" stroke-width="2.29167" stroke-linecap="butt" stroke-linejoin="miter" stroke-miterlimit="8" stroke-opacity="1" fill="none" fill-rule="evenodd"/><path d="M2845.49 1577 2821 1577" stroke="#FF0000" stroke-width="2.29167" stroke-linecap="butt" stroke-linejoin="miter" stroke-miterlimit="8" stroke-opacity="1" fill="none" fill-rule="evenodd"/><path d="M2868 1461 2868 1526.15" stroke="#C00000" stroke-width="2.29167" stroke-linecap="butt" stroke-linejoin="miter" stroke-miterlimit="8" stroke-opacity="1" fill="none" fill-rule="evenodd"/><path d="M2802 1461 2802 1526.15" stroke="#C00000" stroke-width="2.29167" stroke-linecap="butt" stroke-linejoin="miter" stroke-miterlimit="8" stroke-opacity="1" fill="none" fill-rule="evenodd"/><path d="M2837 1629 2837 1694.15" stroke="#C00000" stroke-width="2.29167" stroke-linecap="butt" stroke-linejoin="miter" stroke-miterlimit="8" stroke-opacity="1" fill="none" fill-rule="evenodd"/><rect x="2795.5" y="1673.5" width="90" height="209" stroke="#000000" stroke-width="4.58333" stroke-linecap="butt" stroke-linejoin="miter" stroke-miterlimit="8" stroke-opacity="1" fill="#BF9000" fill-opacity="1"/><text fill="#000000" fill-opacity="1" font-family="Calibri,Calibri_MSFontService,sans-serif" font-style="normal" font-variant="normal" font-weight="400" font-stretch="normal" font-size="83" text-anchor="start" direction="ltr" writing-mode="lr-tb" unicode-bidi="normal" text-decoration="none" transform="matrix(6.12323e-17 1 -1 6.12323e-17 2812.29 1706)">ADC</text><rect x="2572.5" y="1527.5" width="152" height="102" stroke="#C00000" stroke-width="4.58333" stroke-linecap="butt" stroke-linejoin="miter" stroke-miterlimit="8" stroke-opacity="1" fill="#FFFFFF" fill-opacity="1"/><path d="M2702 1606 2646 1577 2702 1548Z" fill="#FF0000" fill-rule="evenodd" fill-opacity="1"/><path d="M2649 1548 2649 1606.77" stroke="#FF0000" stroke-width="2.29167" stroke-linecap="butt" stroke-linejoin="miter" stroke-miterlimit="8" stroke-opacity="1" fill="none" fill-rule="evenodd"/><path d="M2631 1606 2574 1577 2631 1548Z" fill="#FF0000" fill-rule="evenodd" fill-opacity="1"/><path d="M2577 1548 2577 1606.77" stroke="#FF0000" stroke-width="2.29167" stroke-linecap="butt" stroke-linejoin="miter" stroke-miterlimit="8" stroke-opacity="1" fill="none" fill-rule="evenodd"/><path d="M2723.49 1577 2699 1577" stroke="#FF0000" stroke-width="2.29167" stroke-linecap="butt" stroke-linejoin="miter" stroke-miterlimit="8" stroke-opacity="1" fill="none" fill-rule="evenodd"/><path d="M2655.49 1577 2631 1577" stroke="#FF0000" stroke-width="2.29167" stroke-linecap="butt" stroke-linejoin="miter" stroke-miterlimit="8" stroke-opacity="1" fill="none" fill-rule="evenodd"/><path d="M2677 1461 2677 1526.15" stroke="#C00000" stroke-width="2.29167" stroke-linecap="butt" stroke-linejoin="miter" stroke-miterlimit="8" stroke-opacity="1" fill="none" fill-rule="evenodd"/><path d="M2611 1461 2611 1526.15" stroke="#C00000" stroke-width="2.29167" stroke-linecap="butt" stroke-linejoin="miter" stroke-miterlimit="8" stroke-opacity="1" fill="none" fill-rule="evenodd"/><path d="M2646 1629 2646 1694.15" stroke="#C00000" stroke-width="2.29167" stroke-linecap="butt" stroke-linejoin="miter" stroke-miterlimit="8" stroke-opacity="1" fill="none" fill-rule="evenodd"/><rect x="2604.5" y="1673.5" width="90" height="209" stroke="#000000" stroke-width="4.58333" stroke-linecap="butt" stroke-linejoin="miter" stroke-miterlimit="8" stroke-opacity="1" fill="#BF9000" fill-opacity="1"/><text fill="#000000" fill-opacity="1" font-family="Calibri,Calibri_MSFontService,sans-serif" font-style="normal" font-variant="normal" font-weight="400" font-stretch="normal" font-size="83" text-anchor="start" direction="ltr" writing-mode="lr-tb" unicode-bidi="normal" text-decoration="none" transform="matrix(6.12323e-17 1 -1 6.12323e-17 2621.41 1706)">ADC</text><text fill="#000000" fill-opacity="1" font-family="Arial,Arial_MSFontService,sans-serif" font-style="normal" font-variant="normal" font-weight="400" font-stretch="normal" font-size="83" text-anchor="start" direction="ltr" writing-mode="lr-tb" unicode-bidi="normal" text-decoration="none" transform="matrix(1 0 0 1 2334.6 1957)">80<tspan fill="#000000" fill-opacity="1" font-family="Arial,Arial_MSFontService,sans-serif" font-style="normal" font-variant="normal" font-weight="400" font-stretch="normal" font-size="83" text-anchor="start" direction="ltr" writing-mode="lr-tb" unicode-bidi="normal" text-decoration="none" x="91.6668" y="0">-</tspan><tspan fill="#000000" fill-opacity="1" font-family="Arial,Arial_MSFontService,sans-serif" font-style="normal" font-variant="normal" font-weight="400" font-stretch="normal" font-size="83" text-anchor="start" direction="ltr" writing-mode="lr-tb" unicode-bidi="normal" text-decoration="none" x="119.167" y="0">Gsa/s DSO</tspan></text><rect x="2384.5" y="1530.5" width="152" height="102" stroke="#C00000" stroke-width="4.58333" stroke-linecap="butt" stroke-linejoin="miter" stroke-miterlimit="8" stroke-opacity="1" fill="#FFFFFF" fill-opacity="1"/><path d="M2515 1609 2459 1580 2515 1551Z" fill="#FF0000" fill-rule="evenodd" fill-opacity="1"/><path d="M2461 1551 2461 1609.77" stroke="#FF0000" stroke-width="2.29167" stroke-linecap="butt" stroke-linejoin="miter" stroke-miterlimit="8" stroke-opacity="1" fill="none" fill-rule="evenodd"/><path d="M2443 1609 2387 1580 2443 1551Z" fill="#FF0000" fill-rule="evenodd" fill-opacity="1"/><path d="M2390 1551 2390 1609.77" stroke="#FF0000" stroke-width="2.29167" stroke-linecap="butt" stroke-linejoin="miter" stroke-miterlimit="8" stroke-opacity="1" fill="none" fill-rule="evenodd"/><path d="M2536.49 1580 2512 1580" stroke="#FF0000" stroke-width="2.29167" stroke-linecap="butt" stroke-linejoin="miter" stroke-miterlimit="8" stroke-opacity="1" fill="none" fill-rule="evenodd"/><path d="M2467.49 1580 2443 1580" stroke="#FF0000" stroke-width="2.29167" stroke-linecap="butt" stroke-linejoin="miter" stroke-miterlimit="8" stroke-opacity="1" fill="none" fill-rule="evenodd"/><path d="M2490 1465 2490 1530.15" stroke="#C00000" stroke-width="2.29167" stroke-linecap="butt" stroke-linejoin="miter" stroke-miterlimit="8" stroke-opacity="1" fill="none" fill-rule="evenodd"/><path d="M2424 1465 2424 1530.15" stroke="#C00000" stroke-width="2.29167" stroke-linecap="butt" stroke-linejoin="miter" stroke-miterlimit="8" stroke-opacity="1" fill="none" fill-rule="evenodd"/><path d="M2459 1632 2459 1697.15" stroke="#C00000" stroke-width="2.29167" stroke-linecap="butt" stroke-linejoin="miter" stroke-miterlimit="8" stroke-opacity="1" fill="none" fill-rule="evenodd"/><rect x="2416.5" y="1676.5" width="90" height="209" stroke="#000000" stroke-width="4.58333" stroke-linecap="butt" stroke-linejoin="miter" stroke-miterlimit="8" stroke-opacity="1" fill="#BF9000" fill-opacity="1"/><text fill="#000000" fill-opacity="1" font-family="Calibri,Calibri_MSFontService,sans-serif" font-style="normal" font-variant="normal" font-weight="400" font-stretch="normal" font-size="83" text-anchor="start" direction="ltr" writing-mode="lr-tb" unicode-bidi="normal" text-decoration="none" transform="matrix(6.12323e-17 1 -1 6.12323e-17 2433.8 1709)">ADC</text><rect x="2203.5" y="1530.5" width="152" height="102" stroke="#C00000" stroke-width="4.58333" stroke-linecap="butt" stroke-linejoin="miter" stroke-miterlimit="8" stroke-opacity="1" fill="#FFFFFF" fill-opacity="1"/><path d="M2334 1609 2278 1580 2334 1551Z" fill="#FF0000" fill-rule="evenodd" fill-opacity="1"/><path d="M2280 1551 2280 1609.77" stroke="#FF0000" stroke-width="2.29167" stroke-linecap="butt" stroke-linejoin="miter" stroke-miterlimit="8" stroke-opacity="1" fill="none" fill-rule="evenodd"/><path d="M2262 1609 2206 1580 2262 1551Z" fill="#FF0000" fill-rule="evenodd" fill-opacity="1"/><path d="M2209 1551 2209 1609.77" stroke="#FF0000" stroke-width="2.29167" stroke-linecap="butt" stroke-linejoin="miter" stroke-miterlimit="8" stroke-opacity="1" fill="none" fill-rule="evenodd"/><path d="M2355.49 1580 2331 1580" stroke="#FF0000" stroke-width="2.29167" stroke-linecap="butt" stroke-linejoin="miter" stroke-miterlimit="8" stroke-opacity="1" fill="none" fill-rule="evenodd"/><path d="M2286.49 1580 2262 1580" stroke="#FF0000" stroke-width="2.29167" stroke-linecap="butt" stroke-linejoin="miter" stroke-miterlimit="8" stroke-opacity="1" fill="none" fill-rule="evenodd"/><path d="M2309 1465 2309 1530.15" stroke="#C00000" stroke-width="2.29167" stroke-linecap="butt" stroke-linejoin="miter" stroke-miterlimit="8" stroke-opacity="1" fill="none" fill-rule="evenodd"/><path d="M2243 1465 2243 1530.15" stroke="#C00000" stroke-width="2.29167" stroke-linecap="butt" stroke-linejoin="miter" stroke-miterlimit="8" stroke-opacity="1" fill="none" fill-rule="evenodd"/><path d="M2278 1632 2278 1697.15" stroke="#C00000" stroke-width="2.29167" stroke-linecap="butt" stroke-linejoin="miter" stroke-miterlimit="8" stroke-opacity="1" fill="none" fill-rule="evenodd"/><rect x="2235.5" y="1676.5" width="90" height="209" stroke="#000000" stroke-width="4.58333" stroke-linecap="butt" stroke-linejoin="miter" stroke-miterlimit="8" stroke-opacity="1" fill="#BF9000" fill-opacity="1"/><text fill="#000000" fill-opacity="1" font-family="Calibri,Calibri_MSFontService,sans-serif" font-style="normal" font-variant="normal" font-weight="400" font-stretch="normal" font-size="83" text-anchor="start" direction="ltr" writing-mode="lr-tb" unicode-bidi="normal" text-decoration="none" transform="matrix(6.12323e-17 1 -1 6.12323e-17 2252.78 1709)">ADC</text><path d="M2925.83 1267.5C2946.64 1267.5 2963.5 1284.36 2963.5 1305.17L2963.5 1455.83C2963.5 1476.64 2946.64 1493.5 2925.83 1493.5L2214.17 1493.5C2193.36 1493.5 2176.5 1476.64 2176.5 1455.83L2176.5 1305.17C2176.5 1284.36 2193.36 1267.5 2214.17 1267.5Z" stroke="#000000" stroke-width="4.58333" stroke-linecap="butt" stroke-linejoin="miter" stroke-miterlimit="8" stroke-opacity="1" fill="#FFFFFF" fill-rule="evenodd" fill-opacity="1"/><text fill="#000000" fill-opacity="1" font-family="Calibri,Calibri_MSFontService,sans-serif" font-style="normal" font-variant="normal" font-weight="400" font-stretch="normal" font-size="83" text-anchor="start" direction="ltr" writing-mode="lr-tb" unicode-bidi="normal" text-decoration="none" transform="matrix(1 0 0 1 2291.11 1407)">Pol. Mux. Hybrid</text><path d="M2615.5 971.5 2567.5 1046.5 2519.5 971.5Z" stroke="#000000" stroke-width="4.58333" stroke-linecap="butt" stroke-linejoin="miter" stroke-miterlimit="8" stroke-opacity="1" fill="#002060" fill-rule="evenodd" fill-opacity="1"/><path d="M2569.15 1043 2569.15 1082.85 2566.85 1082.85 2566.85 1043ZM2585.03 1055.92 2568 1085.12 2550.97 1055.92C2550.65 1055.38 2550.83 1054.68 2551.38 1054.36 2551.93 1054.04 2552.63 1054.22 2552.95 1054.77L2568.99 1082.27 2567.01 1082.27 2583.05 1054.77C2583.37 1054.22 2584.07 1054.04 2584.62 1054.36 2585.17 1054.68 2585.35 1055.38 2585.03 1055.92Z" fill="#000000" fill-rule="nonzero" fill-opacity="1"/><path d="M2233.15 1146 2233.15 1264.44 2230.85 1264.44 2230.85 1146ZM2249.03 1237.52 2232 1266.72 2214.97 1237.52C2214.65 1236.97 2214.83 1236.27 2215.38 1235.95 2215.93 1235.63 2216.63 1235.82 2216.95 1236.37L2232.99 1263.87 2231.01 1263.87 2247.05 1236.37C2247.37 1235.82 2248.07 1235.63 2248.62 1235.95 2249.17 1236.27 2249.35 1236.97 2249.03 1237.52Z" fill="#000000" fill-rule="nonzero" fill-opacity="1"/><rect x="2180.5" y="1018.5" width="100" height="126" stroke="#000000" stroke-width="3.4375" stroke-linecap="butt" stroke-linejoin="round" stroke-miterlimit="10" stroke-opacity="1" fill="#FFFFFF" fill-opacity="1"/><text fill="#000000" fill-opacity="1" font-family="Arial,Arial_MSFontService,sans-serif" font-style="normal" font-variant="normal" font-weight="400" font-stretch="normal" font-size="55" text-anchor="start" direction="ltr" writing-mode="lr-tb" unicode-bidi="normal" text-decoration="none" transform="matrix(6.12323e-17 1 -1 6.12323e-17 2210.77 1051)">LO</text><path d="M2383.5 1227.5 2418.25 1088.5 2719.75 1088.5 2754.5 1227.5Z" stroke="#000000" stroke-width="4.58333" stroke-linecap="butt" stroke-linejoin="miter" stroke-miterlimit="8" stroke-opacity="1" fill="#FFFFFF" fill-rule="evenodd" fill-opacity="1"/><text fill="#000000" fill-opacity="1" font-family="Calibri,Calibri_MSFontService,sans-serif" font-style="normal" font-variant="normal" font-weight="400" font-stretch="normal" font-size="83" text-anchor="start" direction="ltr" writing-mode="lr-tb" unicode-bidi="normal" text-decoration="none" transform="matrix(1 0 0 1 2493.91 1189)">WSS</text><path d="M2566.15 1225 2566.15 1264.85 2563.85 1264.85 2563.85 1225ZM2582.03 1237.92 2565 1267.12 2547.97 1237.92C2547.65 1237.38 2547.83 1236.68 2548.38 1236.36 2548.93 1236.04 2549.63 1236.22 2549.95 1236.77L2565.99 1264.27 2564.01 1264.27 2580.05 1236.77C2580.37 1236.22 2581.07 1236.04 2581.62 1236.36 2582.17 1236.68 2582.35 1237.38 2582.03 1237.92Z" fill="#000000" fill-rule="nonzero" fill-opacity="1"/><path d="M1575 2214.5C1562.02 2214.5 1551.5 2203.98 1551.5 2191L1551.5 1900C1551.5 1887.02 1562.02 1876.5 1575 1876.5L1669 1876.5C1681.98 1876.5 1692.5 1887.02 1692.5 1900L1692.5 2191C1692.5 2203.98 1681.98 2214.5 1669 2214.5Z" stroke="#000000" stroke-width="4.58333" stroke-linecap="butt" stroke-linejoin="miter" stroke-miterlimit="8" stroke-opacity="1" fill="#FFF2CC" fill-rule="evenodd" fill-opacity="1"/><text fill="#000000" fill-opacity="1" font-family="Calibri,Calibri_MSFontService,sans-serif" font-style="normal" font-variant="normal" font-weight="400" font-stretch="normal" font-size="83" text-anchor="start" direction="ltr" writing-mode="lr-tb" unicode-bidi="normal" text-decoration="none" transform="matrix(-1.83697e-16 -1 1 -1.83697e-16 1649.14 2174)">TX DSP<tspan fill="#000000" fill-opacity="1" font-family="Arial,Arial_MSFontService,sans-serif" font-style="normal" font-variant="normal" font-weight="400" font-stretch="normal" font-size="83" text-anchor="start" direction="ltr" writing-mode="lr-tb" unicode-bidi="normal" text-decoration="none" x="739" y="-137.768">EA</tspan></text><path d="M1835 1984.11C1835 1961.33 1860.57 1938.56 1886.13 1938.56 1911.7 1938.56 1937.27 1915.78 1937.27 1893" stroke="#002060" stroke-width="2.29167" stroke-linecap="butt" stroke-linejoin="miter" stroke-miterlimit="8" stroke-opacity="1" fill="none" fill-rule="evenodd"/><path d="M0 0C22.7786 0 45.5571 25.5666 45.5571 51.1332 45.5571 76.6998 68.3347 102.266 91.1124 102.266" stroke="#002060" stroke-width="2.29167" stroke-linecap="butt" stroke-linejoin="miter" stroke-miterlimit="8" stroke-opacity="1" fill="none" fill-rule="evenodd" transform="matrix(1.83697e-16 1 1 -1.83697e-16 1937 1893)"/><path d="M1937 1983.91 1937 1806" stroke="#002060" stroke-width="2.29167" stroke-linecap="butt" stroke-linejoin="miter" stroke-miterlimit="8" stroke-opacity="1" fill="none" fill-rule="evenodd"/><path d="M1308 1973.08C1308 1957.56 1322.28 1942.04 1336.57 1942.04 1350.85 1942.04 1365.13 1926.52 1365.13 1911" stroke="#000000" stroke-width="2.29167" stroke-linecap="butt" stroke-linejoin="miter" stroke-miterlimit="8" stroke-opacity="1" fill="none" fill-rule="evenodd"/><path d="M0 0C15.5193 0 31.0386 14.2835 31.0386 28.567 31.0386 42.8505 46.5574 57.134 62.076 57.134" stroke="#000000" stroke-width="2.29167" stroke-linecap="butt" stroke-linejoin="miter" stroke-miterlimit="8" stroke-opacity="1" fill="none" fill-rule="evenodd" transform="matrix(1.83697e-16 1 1 -1.83697e-16 1308 1852)"/><path d="M0 0C15.5193 0 31.0386 14.2835 31.0386 28.567 31.0386 42.8505 46.5574 57.134 62.076 57.134" stroke="#000000" stroke-width="2.29167" stroke-linecap="butt" stroke-linejoin="miter" stroke-miterlimit="8" stroke-opacity="1" fill="none" fill-rule="evenodd" transform="matrix(1.83697e-16 1 1 -1.83697e-16 1366 1911)"/><path d="M1573.33 1873.5C1560.17 1873.5 1549.5 1862.83 1549.5 1849.67L1549.5 1308.33C1549.5 1295.17 1560.17 1284.5 1573.33 1284.5L1668.67 1284.5C1681.83 1284.5 1692.5 1295.17 1692.5 1308.33L1692.5 1849.67C1692.5 1862.83 1681.83 1873.5 1668.67 1873.5Z" stroke="#000000" stroke-width="4.58333" stroke-linecap="butt" stroke-linejoin="miter" stroke-miterlimit="8" stroke-opacity="1" fill="#ED7D31" fill-rule="evenodd" fill-opacity="1"/><text fill="#000000" fill-opacity="1" font-family="Calibri,Calibri_MSFontService,sans-serif" font-style="normal" font-variant="normal" font-weight="400" font-stretch="normal" font-size="78" text-anchor="start" direction="ltr" writing-mode="lr-tb" unicode-bidi="normal" text-decoration="none" transform="matrix(-1.83697e-16 -1 1 -1.83697e-16 1646.73 1829)">112<tspan fill="#000000" fill-opacity="1" font-family="Calibri,Calibri_MSFontService,sans-serif" font-style="normal" font-variant="normal" font-weight="400" font-stretch="normal" font-size="78" text-anchor="start" direction="ltr" writing-mode="lr-tb" unicode-bidi="normal" text-decoration="none" x="118" y="2.16762e-14">-</tspan><tspan fill="#000000" fill-opacity="1" font-family="Calibri,Calibri_MSFontService,sans-serif" font-style="normal" font-variant="normal" font-weight="400" font-stretch="normal" font-size="78" text-anchor="start" direction="ltr" writing-mode="lr-tb" unicode-bidi="normal" text-decoration="none" x="143" y="2.62687e-14">Gsa/s AWG</tspan></text><path d="M0 0 0.000360892 143.763" stroke="#002060" stroke-width="2.29167" stroke-linecap="butt" stroke-linejoin="miter" stroke-miterlimit="8" stroke-opacity="1" fill="none" fill-rule="evenodd" transform="matrix(-1.83697e-16 -1 -1 1.83697e-16 1548.76 1660)"/><path d="M0 0 0.000360892 144.113" stroke="#002060" stroke-width="2.29167" stroke-linecap="butt" stroke-linejoin="miter" stroke-miterlimit="8" stroke-opacity="1" fill="none" fill-rule="evenodd" transform="matrix(-1.83697e-16 -1 -1 1.83697e-16 1549.11 1495)"/><path d="M1695 1660 1856.94 1660" stroke="#002060" stroke-width="2.29167" stroke-linecap="butt" stroke-linejoin="miter" stroke-miterlimit="8" stroke-opacity="1" fill="none" fill-rule="evenodd"/><path d="M1695 1497 1853.02 1497" stroke="#002060" stroke-width="2.29167" stroke-linecap="butt" stroke-linejoin="miter" stroke-miterlimit="8" stroke-opacity="1" fill="none" fill-rule="evenodd"/><path d="M1543.17 1269.5C1524.57 1269.5 1509.5 1254.43 1509.5 1235.83L1509.5 1047.17C1509.5 1028.57 1524.57 1013.5 1543.17 1013.5L1677.83 1013.5C1696.43 1013.5 1711.5 1028.57 1711.5 1047.17L1711.5 1235.83C1711.5 1254.43 1696.43 1269.5 1677.83 1269.5Z" stroke="#000000" stroke-width="4.58333" stroke-linecap="butt" stroke-linejoin="miter" stroke-miterlimit="8" stroke-opacity="1" fill="#FFFFFF" fill-rule="evenodd" fill-opacity="1"/><text fill="#000000" fill-opacity="1" font-family="Calibri,Calibri_MSFontService,sans-serif" font-style="normal" font-variant="normal" font-weight="400" font-stretch="normal" font-size="83" text-anchor="start" direction="ltr" writing-mode="lr-tb" unicode-bidi="normal" text-decoration="none" transform="matrix(-1.83697e-16 -1 1 -1.83697e-16 1587.88 1223)">PDM<tspan fill="#000000" fill-opacity="1" font-family="Calibri,Calibri_MSFontService,sans-serif" font-style="normal" font-variant="normal" font-weight="400" font-stretch="normal" font-size="83" text-anchor="start" direction="ltr" writing-mode="lr-tb" unicode-bidi="normal" text-decoration="none" x="-3" y="99">Emu.</tspan></text><path d="M1306.93 1524.68 1306.93 1140.93 1508.37 1140.93 1508.37 1142.07 1307.5 1142.07 1308.07 1141.5 1308.07 1524.68ZM1481.16 1124.96 1509.51 1141.5 1481.16 1158.04C1480.89 1158.2 1480.54 1158.1 1480.38 1157.83 1480.22 1157.56 1480.31 1157.21 1480.58 1157.05L1508.08 1141.01 1508.08 1141.99 1480.58 1125.95C1480.31 1125.79 1480.22 1125.44 1480.38 1125.17 1480.54 1124.9 1480.89 1124.8 1481.16 1124.96Z" fill="#002060" fill-rule="nonzero" fill-opacity="1"/><path d="M0-0.572917 201.258-0.572917 201.258 226.686 200.112 226.686 200.112 0 200.685 0.572917 0 0.572917ZM217.222 199.475 200.685 227.824 184.149 199.475C183.989 199.202 184.082 198.851 184.355 198.692 184.628 198.532 184.979 198.625 185.139 198.898L201.18 226.398 200.191 226.398 216.232 198.898C216.392 198.625 216.742 198.532 217.016 198.692 217.289 198.851 217.381 199.202 217.222 199.475Z" fill="#002060" fill-rule="nonzero" fill-opacity="1" transform="matrix(-1.83697e-16 -1 -1 1.83697e-16 1939.32 1342.19)"/><path d="M1238.67 1794.5C1219.25 1794.5 1203.5 1778.75 1203.5 1759.33L1203.5 1378.67C1203.5 1359.24 1219.25 1343.5 1238.67 1343.5L1379.33 1343.5C1398.76 1343.5 1414.5 1359.24 1414.5 1378.67L1414.5 1759.33C1414.5 1778.75 1398.76 1794.5 1379.33 1794.5Z" stroke="#000000" stroke-width="4.58333" stroke-linecap="butt" stroke-linejoin="miter" stroke-miterlimit="8" stroke-opacity="1" fill="#FFFFFF" fill-rule="evenodd" fill-opacity="1"/><text fill="#000000" fill-opacity="1" font-family="Calibri,Calibri_MSFontService,sans-serif" font-style="normal" font-variant="normal" font-weight="400" font-stretch="normal" font-size="83" text-anchor="start" direction="ltr" writing-mode="lr-tb" unicode-bidi="normal" text-decoration="none" transform="matrix(-1.83697e-16 -1 1 -1.83697e-16 1286.27 1623)">I/Q<tspan fill="#000000" fill-opacity="1" font-family="Calibri,Calibri_MSFontService,sans-serif" font-style="normal" font-variant="normal" font-weight="400" font-stretch="normal" font-size="83" text-anchor="start" direction="ltr" writing-mode="lr-tb" unicode-bidi="normal" text-decoration="none" x="-125" y="99">Modulator</tspan></text><path d="M1868.67 1799.5C1849.24 1799.5 1833.5 1783.76 1833.5 1764.33L1833.5 1377.67C1833.5 1358.24 1849.24 1342.5 1868.67 1342.5L2009.33 1342.5C2028.76 1342.5 2044.5 1358.24 2044.5 1377.67L2044.5 1764.33C2044.5 1783.76 2028.76 1799.5 2009.33 1799.5Z" stroke="#000000" stroke-width="4.58333" stroke-linecap="butt" stroke-linejoin="miter" stroke-miterlimit="8" stroke-opacity="1" fill="#FFFFFF" fill-rule="evenodd" fill-opacity="1"/><text fill="#000000" fill-opacity="1" font-family="Calibri,Calibri_MSFontService,sans-serif" font-style="normal" font-variant="normal" font-weight="400" font-stretch="normal" font-size="83" text-anchor="start" direction="ltr" writing-mode="lr-tb" unicode-bidi="normal" text-decoration="none" transform="matrix(-1.83697e-16 -1 1 -1.83697e-16 1916.68 1624)">I/Q<tspan fill="#000000" fill-opacity="1" font-family="Calibri,Calibri_MSFontService,sans-serif" font-style="normal" font-variant="normal" font-weight="400" font-stretch="normal" font-size="83" text-anchor="start" direction="ltr" writing-mode="lr-tb" unicode-bidi="normal" text-decoration="none" x="-126" y="99">Modulator</tspan></text><path d="M1730.5 1451.5 1797.5 1497 1730.5 1542.5Z" stroke="#2E75B6" stroke-width="4.58333" stroke-linecap="butt" stroke-linejoin="miter" stroke-miterlimit="8" stroke-opacity="1" fill="#4472C4" fill-rule="evenodd" fill-opacity="1"/><path d="M1730.5 1614.5 1797.5 1660.5 1730.5 1706.5Z" stroke="#2E75B6" stroke-width="4.58333" stroke-linecap="butt" stroke-linejoin="miter" stroke-miterlimit="8" stroke-opacity="1" fill="#4472C4" fill-rule="evenodd" fill-opacity="1"/><path d="M1514.5 1705.5 1448.5 1660 1514.5 1614.5Z" stroke="#2E75B6" stroke-width="4.58333" stroke-linecap="butt" stroke-linejoin="miter" stroke-miterlimit="8" stroke-opacity="1" fill="#4472C4" fill-rule="evenodd" fill-opacity="1"/><path d="M1514.5 1541.5 1448.5 1495.5 1514.5 1449.5Z" stroke="#2E75B6" stroke-width="4.58333" stroke-linecap="butt" stroke-linejoin="miter" stroke-miterlimit="8" stroke-opacity="1" fill="#4472C4" fill-rule="evenodd" fill-opacity="1"/><rect x="1214.5" y="1998.5" width="63.9999" height="194" stroke="#000000" stroke-width="4.58333" stroke-linecap="butt" stroke-linejoin="miter" stroke-miterlimit="8" stroke-opacity="1" fill="#FFFFFF" fill-opacity="1"/><text fill="#000000" fill-opacity="1" font-family="Calibri,Calibri_MSFontService,sans-serif" font-style="normal" font-variant="normal" font-weight="400" font-stretch="normal" font-size="60" text-anchor="start" direction="ltr" writing-mode="lr-tb" unicode-bidi="normal" text-decoration="none" transform="matrix(-1.83697e-16 -1 1 -1.83697e-16 1266.19 2156)">Ch. 1</text><rect x="1300.5" y="1998.5" width="63.9999" height="194" stroke="#000000" stroke-width="4.58333" stroke-linecap="butt" stroke-linejoin="miter" stroke-miterlimit="8" stroke-opacity="1" fill="#FFFFFF" fill-opacity="1"/><text fill="#000000" fill-opacity="1" font-family="Calibri,Calibri_MSFontService,sans-serif" font-style="normal" font-variant="normal" font-weight="400" font-stretch="normal" font-size="60" text-anchor="start" direction="ltr" writing-mode="lr-tb" unicode-bidi="normal" text-decoration="none" transform="matrix(-1.83697e-16 -1 1 -1.83697e-16 1352.31 2156)">Ch. 3</text><rect x="1803.5" y="2000.5" width="63.9999" height="194" stroke="#000000" stroke-width="4.58333" stroke-linecap="butt" stroke-linejoin="miter" stroke-miterlimit="8" stroke-opacity="1" fill="#FFFFFF" fill-opacity="1"/><text fill="#000000" fill-opacity="1" font-family="Calibri,Calibri_MSFontService,sans-serif" font-style="normal" font-variant="normal" font-weight="400" font-stretch="normal" font-size="60" text-anchor="start" direction="ltr" writing-mode="lr-tb" unicode-bidi="normal" text-decoration="none" transform="matrix(-1.83697e-16 -1 1 -1.83697e-16 1855.18 2158)">Ch. 2</text><rect x="1903.5" y="2000.5" width="64.0002" height="194" stroke="#000000" stroke-width="4.58333" stroke-linecap="butt" stroke-linejoin="miter" stroke-miterlimit="8" stroke-opacity="1" fill="#FFFFFF" fill-opacity="1"/><text fill="#000000" fill-opacity="1" font-family="Calibri,Calibri_MSFontService,sans-serif" font-style="normal" font-variant="normal" font-weight="400" font-stretch="normal" font-size="55" text-anchor="start" direction="ltr" writing-mode="lr-tb" unicode-bidi="normal" text-decoration="none" transform="matrix(-1.83697e-16 -1 1 -1.83697e-16 1952.71 2154)">Ch. 4</text><rect x="2013.5" y="2000.5" width="64.0002" height="194" stroke="#000000" stroke-width="4.58333" stroke-linecap="butt" stroke-linejoin="miter" stroke-miterlimit="8" stroke-opacity="1" fill="#FFFFFF" fill-opacity="1"/><text fill="#000000" fill-opacity="1" font-family="Calibri,Calibri_MSFontService,sans-serif" font-style="normal" font-variant="normal" font-weight="400" font-stretch="normal" font-size="60" text-anchor="start" direction="ltr" writing-mode="lr-tb" unicode-bidi="normal" text-decoration="none" transform="matrix(-1.83697e-16 -1 1 -1.83697e-16 2065.1 2158)">Ch. 6</text><path d="M1306.85 1851.61 1307.15 1796.26 1309.44 1796.27 1309.15 1851.62ZM1291.12 1823.1 1308.31 1793.99 1325.18 1823.28C1325.5 1823.83 1325.31 1824.53 1324.76 1824.85 1324.21 1825.16 1323.51 1824.97 1323.2 1824.43L1307.3 1796.84 1309.28 1796.85 1293.09 1824.27C1292.77 1824.81 1292.07 1824.99 1291.52 1824.67 1290.98 1824.35 1290.8 1823.64 1291.12 1823.1Z" fill="#002060" fill-rule="nonzero" fill-opacity="1"/><path d="M1934.85 1852.29 1934.85 1801.27 1937.15 1801.27 1937.15 1852.29ZM1918.97 1828.19 1936 1798.99 1953.03 1828.19C1953.35 1828.74 1953.17 1829.44 1952.62 1829.76 1952.07 1830.08 1951.37 1829.89 1951.05 1829.35L1935.01 1801.85 1936.99 1801.85 1920.95 1829.35C1920.63 1829.89 1919.93 1830.08 1919.38 1829.76 1918.83 1829.44 1918.65 1828.74 1918.97 1828.19Z" fill="#000000" fill-rule="nonzero" fill-opacity="1"/><path d="M1570.5 981.5 1618.5 907.5 1666.5 981.5Z" stroke="#000000" stroke-width="4.58333" stroke-linecap="butt" stroke-linejoin="miter" stroke-miterlimit="8" stroke-opacity="1" fill="#002060" fill-rule="evenodd" fill-opacity="1"/><path d="M1615.85 1011.68 1616.65 983.236 1618.94 983.3 1618.15 1011.75ZM1600.02 1009.71 1617.85 980.995 1634.07 1010.65C1634.37 1011.21 1634.17 1011.9 1633.61 1012.21 1633.06 1012.51 1632.36 1012.31 1632.06 1011.75L1616.79 983.817 1618.76 983.872 1601.96 1010.92C1601.63 1011.45 1600.92 1011.62 1600.39 1011.28 1599.85 1010.95 1599.68 1010.24 1600.02 1009.71Z" fill="#000000" fill-rule="nonzero" fill-opacity="1"/><path d="M0 0 24.3198 0.000360892" stroke="#000000" stroke-width="2.29167" stroke-linecap="butt" stroke-linejoin="miter" stroke-miterlimit="8" stroke-opacity="1" fill="none" fill-rule="evenodd" transform="matrix(-1.83697e-16 -1 -1 1.83697e-16 1246 1998.32)"/><path d="M1835 2000.79 1835 1981" stroke="#000000" stroke-width="2.29167" stroke-linecap="butt" stroke-linejoin="miter" stroke-miterlimit="8" stroke-opacity="1" fill="none" fill-rule="evenodd"/><path d="M1937 2000.79 1937 1981" stroke="#000000" stroke-width="2.29167" stroke-linecap="butt" stroke-linejoin="miter" stroke-miterlimit="8" stroke-opacity="1" fill="none" fill-rule="evenodd"/><path d="M2039 2000.79 2039 1981" stroke="#000000" stroke-width="2.29167" stroke-linecap="butt" stroke-linejoin="miter" stroke-miterlimit="8" stroke-opacity="1" fill="none" fill-rule="evenodd"/><path d="M0-1.14583 173.25-1.14583 173.25 392.251 172.104 391.106 397.129 391.106 395.983 392.251 395.983 137.23 398.274 137.23 398.274 393.397 170.958 393.397 170.958 0 172.104 1.14583 0 1.14583ZM383.379 141.814 397.129 114.314 410.879 141.814Z" fill="#000000" fill-rule="nonzero" fill-opacity="1" transform="matrix(-1.83697e-16 -1 -1 1.83697e-16 1618.31 907.129)"/><path d="M0 1.14583-82.4987 1.14583-81.3529 0-81.3529 365.611-82.4987 364.465 361.024 364.465 361.024 444.502 358.733 444.502 358.733 365.611 359.879 366.756-83.6445 366.756-83.6445-1.14583 0-1.14583ZM373.629 439.919 359.879 467.419 346.129 439.919Z" fill="#000000" fill-rule="nonzero" fill-opacity="1" transform="matrix(-1 0 0 1 2926.88 504)"/><path d="M1817.5 512C1817.5 493.498 1832.5 478.5 1851 478.5 1869.5 478.5 1884.5 493.498 1884.5 512 1884.5 530.502 1869.5 545.5 1851 545.5 1832.5 545.5 1817.5 530.502 1817.5 512Z" stroke="#000000" stroke-width="4.58333" stroke-linecap="butt" stroke-linejoin="miter" stroke-miterlimit="8" stroke-opacity="1" fill="none" fill-rule="evenodd"/><path d="M0.799163-0.821141 70.4982 67.0125 68.8999 68.6548-0.799163 0.821141ZM76.0045 54.7833 86.1219 83.8169 56.8246 74.4907Z" fill="#000000" fill-rule="nonzero" fill-opacity="1" transform="matrix(1 0 0 -1 1812 547.817)"/><path d="M1759 508.854 1814.61 508.855 1814.61 511.146 1759 511.146ZM1787.69 492.969 1816.89 510 1787.69 527.032C1787.14 527.351 1786.44 527.166 1786.12 526.619 1785.8 526.073 1785.99 525.371 1786.53 525.052L1814.03 509.011 1814.03 510.99 1786.53 494.948C1785.99 494.63 1785.8 493.928 1786.12 493.381 1786.44 492.835 1787.14 492.65 1787.69 492.969Z" fill="#000000" fill-rule="nonzero" fill-opacity="1"/><rect x="1664.5" y="417.5" width="380" height="235" stroke="#000000" stroke-width="4.58333" stroke-linecap="butt" stroke-linejoin="miter" stroke-miterlimit="8" stroke-dasharray="18.3333 13.75" stroke-opacity="1" fill="none"/><text fill="#000000" fill-opacity="1" font-family="Arial,Arial_MSFontService,sans-serif" font-style="normal" font-variant="normal" font-weight="400" font-stretch="normal" font-size="64" text-anchor="start" direction="ltr" writing-mode="lr-tb" unicode-bidi="normal" text-decoration="none" transform="matrix(1 0 0 1 1825.27 634)">Node<tspan fill="#2F5597" fill-opacity="1" font-family="Arial,Arial_MSFontService,sans-serif" font-style="normal" font-variant="normal" font-weight="400" font-stretch="normal" font-size="64" text-anchor="start" direction="ltr" writing-mode="lr-tb" unicode-bidi="normal" text-decoration="none" x="152.969" y="0">#1</tspan></text><path d="M1935.5 543.5C1944.38 511.685 1953.25 479.871 1961.59 479.503 1969.92 479.135 1977.71 510.214 1985.5 541.293" stroke="#000000" stroke-width="4.58333" stroke-linecap="butt" stroke-linejoin="miter" stroke-miterlimit="8" stroke-opacity="1" fill="none" fill-rule="evenodd"/><path d="M2644.5 543.5C2653.38 512.182 2662.25 480.865 2670.59 480.503 2678.92 480.141 2686.71 510.734 2694.5 541.328" stroke="#000000" stroke-width="4.58333" stroke-linecap="butt" stroke-linejoin="miter" stroke-miterlimit="8" stroke-opacity="1" fill="none" fill-rule="evenodd"/><path d="M2525.5 509C2525.5 490.498 2540.5 475.5 2559 475.5 2577.5 475.5 2592.5 490.498 2592.5 509 2592.5 527.501 2577.5 542.5 2559 542.5 2540.5 542.5 2525.5 527.501 2525.5 509Z" stroke="#000000" stroke-width="4.58333" stroke-linecap="butt" stroke-linejoin="miter" stroke-miterlimit="8" stroke-opacity="1" fill="none" fill-rule="evenodd"/><path d="M0.799163-0.821141 70.4982 67.0125 68.8999 68.6548-0.799163 0.821141ZM76.0045 54.7833 86.1219 83.8169 56.8246 74.4907Z" fill="#000000" fill-rule="nonzero" fill-opacity="1" transform="matrix(1 0 0 -1 2520 544.817)"/><path d="M0.00338419-1.14583 46.3671-1.00889 46.3603 1.28276-0.00338419 1.14583ZM19.4914-16.9739 48.6377 0.143651 19.3908 17.0888C18.8433 17.406 18.1422 17.2193 17.825 16.6717 17.5077 16.1242 17.6944 15.4231 18.242 15.1059L45.7892-0.854513 45.7834 1.12497 18.3309-14.9978C17.7852-15.3183 17.6027-16.0205 17.9231-16.5662 18.2436-17.1118 18.9458-17.2944 19.4914-16.9739Z" fill="#000000" fill-rule="nonzero" fill-opacity="1" transform="matrix(1 0 0 -1 2596 506.144)"/><path d="M0.00338419-1.14583 46.3671-1.00889 46.3603 1.28276-0.00338419 1.14583ZM19.4914-16.9739 48.6377 0.143651 19.3908 17.0888C18.8433 17.406 18.1422 17.2193 17.825 16.6717 17.5077 16.1242 17.6944 15.4231 18.242 15.1059L45.7892-0.854513 45.7834 1.12497 18.3309-14.9978C17.7852-15.3183 17.6027-16.0205 17.9231-16.5662 18.2436-17.1118 18.9458-17.2944 19.4914-16.9739Z" fill="#000000" fill-rule="nonzero" fill-opacity="1" transform="matrix(1 0 0 -1 2690 506.144)"/><rect x="2351.5" y="415.5" width="380" height="235" stroke="#000000" stroke-width="4.58333" stroke-linecap="butt" stroke-linejoin="miter" stroke-miterlimit="8" stroke-dasharray="18.3333 13.75" stroke-opacity="1" fill="none"/><text fill="#000000" fill-opacity="1" font-family="Arial,Arial_MSFontService,sans-serif" font-style="normal" font-variant="normal" font-weight="400" font-stretch="normal" font-size="64" text-anchor="start" direction="ltr" writing-mode="lr-tb" unicode-bidi="normal" text-decoration="none" transform="matrix(1 0 0 1 2488.21 635)">Node<tspan fill="#2F5597" fill-opacity="1" font-family="Arial,Arial_MSFontService,sans-serif" font-style="normal" font-variant="normal" font-weight="400" font-stretch="normal" font-size="64" text-anchor="start" direction="ltr" writing-mode="lr-tb" unicode-bidi="normal" text-decoration="none" x="152.969" y="0">#15</tspan></text><path d="M1335 1972.16C1335 1954.45 1342.86 1936.74 1350.72 1936.74 1358.58 1936.74 1366.44 1923.37 1366.44 1910" stroke="#002060" stroke-width="2.29167" stroke-linecap="butt" stroke-linejoin="miter" stroke-miterlimit="8" stroke-opacity="1" fill="none" fill-rule="evenodd"/><path d="M0 0C12.8837 0 25.7675 8.68462 25.7675 17.3692 25.7675 26.0538 42.9937 34.7384 60.2199 34.7384" stroke="#002060" stroke-width="2.29167" stroke-linecap="butt" stroke-linejoin="miter" stroke-miterlimit="8" stroke-opacity="1" fill="none" fill-rule="evenodd" transform="matrix(1.83697e-16 1 1 -1.83697e-16 1364 1914)"/><rect x="1375.5" y="1996.5" width="64.0002" height="194" stroke="#000000" stroke-width="4.58333" stroke-linecap="butt" stroke-linejoin="miter" stroke-miterlimit="8" stroke-opacity="1" fill="#FFFFFF" fill-opacity="1"/><text fill="#000000" fill-opacity="1" font-family="Calibri,Calibri_MSFontService,sans-serif" font-style="normal" font-variant="normal" font-weight="400" font-stretch="normal" font-size="60" text-anchor="start" direction="ltr" writing-mode="lr-tb" unicode-bidi="normal" text-decoration="none" transform="matrix(-1.83697e-16 -1 1 -1.83697e-16 1427.2 2154)">Ch. 5</text><rect x="1461.5" y="1996.5" width="63.9999" height="194" stroke="#000000" stroke-width="4.58333" stroke-linecap="butt" stroke-linejoin="miter" stroke-miterlimit="8" stroke-opacity="1" fill="#FFFFFF" fill-opacity="1"/><text fill="#000000" fill-opacity="1" font-family="Calibri,Calibri_MSFontService,sans-serif" font-style="normal" font-variant="normal" font-weight="400" font-stretch="normal" font-size="60" text-anchor="start" direction="ltr" writing-mode="lr-tb" unicode-bidi="normal" text-decoration="none" transform="matrix(-1.83697e-16 -1 1 -1.83697e-16 1513.32 2154)">Ch. 7</text><path d="M1246 1972 1306.96 1972" stroke="#002060" stroke-width="2.29167" stroke-linecap="butt" stroke-linejoin="miter" stroke-miterlimit="8" stroke-opacity="1" fill="none" fill-rule="evenodd"/><path d="M0 0 3.81283 26.2087" stroke="#002060" stroke-width="2.29167" stroke-linecap="butt" stroke-linejoin="miter" stroke-miterlimit="8" stroke-opacity="1" fill="none" fill-rule="evenodd" transform="matrix(1 0 0 -1 1332 1998.21)"/><path d="M1407.22 1996.01 1400 1974" stroke="#002060" stroke-width="2.29167" stroke-linecap="butt" stroke-linejoin="miter" stroke-miterlimit="8" stroke-opacity="1" fill="none" fill-rule="evenodd"/><path d="M0 0 24.357 0 24.357 72.0789" stroke="#002060" stroke-width="2.29167" stroke-linecap="butt" stroke-linejoin="miter" stroke-miterlimit="8" stroke-opacity="1" fill="none" fill-rule="evenodd" transform="matrix(-1.83697e-16 -1 -1 1.83697e-16 1493.08 1996.36)"/></g></svg>